<?xml version="1.0" standalone="no"?>
<!DOCTYPE svg PUBLIC "-//W3C//DTD SVG 20010904//EN"
 "http://www.w3.org/TR/2001/REC-SVG-20010904/DTD/svg10.dtd">
<svg version="1.0" xmlns="http://www.w3.org/2000/svg"
 width="3000.000000pt" height="3000.000000pt" viewBox="0 0 3000.000000 3000.000000"
 preserveAspectRatio="xMidYMid meet">

<g transform="translate(0.000000,3000.000000) scale(0.100000,-0.100000)"
fill="white" stroke="none">
<path d="M5275 25219 c-823 -67 -1577 -484 -2137 -1179 -288 -359 -479 -769
-572 -1231 -65 -320 -60 107 -63 -5056 l-3 -4683 1520 0 1520 0 0 48 c0 103
21 435 35 572 115 1073 488 2104 1178 3255 729 1217 1746 2361 2899 3262 567
444 1151 817 1773 1134 532 271 977 448 1465 583 530 146 1134 236 1593 236
l127 0 0 1535 0 1535 -104 0 c-261 0 -714 -32 -1054 -75 -1536 -195 -3181
-836 -4707 -1836 -1108 -726 -2228 -1713 -3104 -2736 l-96 -113 -3 2380 -2
2380 -83 -1 c-45 -1 -127 -5 -182 -10z"/>
<path d="M15390 23697 l0 -1537 128 0 c522 0 1202 -114 1809 -304 880 -275
1874 -800 2773 -1464 1116 -826 2119 -1888 2895 -3067 811 -1230 1277 -2395
1415 -3529 26 -214 40 -406 40 -540 0 -61 3 -128 6 -148 l7 -38 1519 0 1518 0
-3 4668 c-3 3548 -6 4690 -15 4762 -21 162 -51 330 -82 450 -129 511 -388 958
-780 1350 -556 557 -1181 857 -1915 920 -66 5 -148 10 -182 10 l-63 0 0 -2376
c0 -1365 -4 -2374 -9 -2372 -5 2 -76 79 -157 173 -232 265 -358 400 -634 679
-1470 1489 -3162 2607 -4960 3279 -1039 388 -2012 581 -3092 614 l-218 6 0
-1536z"/>
<path d="M14205 21799 c-816 -60 -1601 -277 -2462 -681 l-173 -81 0 -3949 0
-3948 1520 0 1520 0 0 4335 0 4335 -147 -1 c-82 -1 -197 -5 -258 -10z"/>
<path d="M15390 17475 l0 -4335 1520 0 1520 0 0 3945 0 3945 -100 50 c-374
188 -917 395 -1334 509 -494 135 -1068 221 -1483 221 l-123 0 0 -4335z"/>
<path d="M3938 11834 c-176 -32 -334 -115 -479 -251 -130 -123 -223 -276 -271
-448 l-23 -80 -3 -1519 -2 -1519 282 7 c156 3 372 9 481 12 l197 7 0 1903 0
1904 -52 -1 c-29 0 -87 -7 -130 -15z"/>
<path d="M5413 11835 c-94 -17 -162 -40 -253 -85 -206 -103 -401 -317 -476
-524 -56 -156 -54 -87 -54 -1711 l0 -1495 474 0 474 0 7 88 c20 283 87 546
203 796 189 408 433 748 778 1086 429 420 908 708 1380 830 135 35 308 60 414
60 l80 0 0 487 0 486 -134 -6 c-931 -45 -1897 -566 -2678 -1445 -21 -23 -40
-42 -43 -42 -3 0 -5 335 -5 745 l0 745 -47 -1 c-27 0 -80 -7 -120 -14z"/>
<path d="M8690 11367 l0 -484 123 -6 c338 -16 699 -138 1072 -362 267 -160
475 -324 705 -554 308 -309 537 -628 719 -999 143 -294 231 -624 231 -866 l0
-76 480 0 480 0 -2 1518 -3 1517 -23 80 c-47 168 -129 305 -257 431 -173 170
-370 263 -594 281 l-81 6 0 -749 0 -749 -57 65 c-569 649 -1335 1144 -2068
1335 -209 55 -488 95 -662 95 l-63 0 0 -483z"/>
<path d="M19030 11753 c1 -225 34 -579 80 -860 100 -595 284 -1179 526 -1662
211 -424 436 -750 746 -1083 l100 -108 458 0 459 0 112 123 c480 526 813 1115
1040 1840 175 561 271 1107 286 1630 l6 217 -475 0 -476 0 -6 -127 c-22 -450
-61 -721 -157 -1112 -150 -609 -383 -1119 -718 -1568 -42 -57 -79 -103 -82
-103 -9 0 -150 191 -226 305 -250 376 -450 845 -577 1352 -95 380 -156 822
-156 1134 l0 119 -470 0 -470 0 0 -97z"/>
<path d="M23310 11782 c0 -67 32 -187 71 -263 91 -182 245 -314 444 -381 l70
-23 1128 -3 1127 -3 0 -324 0 -324 -42 -5 c-24 -3 -105 -8 -180 -11 -411 -17
-867 -110 -1210 -246 -225 -89 -396 -181 -595 -319 l-112 -78 -3 386 -4 387
-27 80 c-92 277 -343 481 -614 502 l-73 6 0 -1572 0 -1571 359 0 358 0 6 223
c4 168 10 244 25 312 76 346 280 623 601 818 341 207 770 328 1306 367 77 5
154 10 172 10 l32 0 3 -562 c4 -547 5 -565 26 -636 44 -146 125 -269 245 -370
108 -92 286 -162 413 -162 l47 0 -6 98 c-4 53 -9 754 -13 1557 -3 803 -10
1493 -15 1533 -20 161 -88 293 -213 417 -91 90 -160 134 -268 173 l-73 27
-1492 3 -1493 2 0 -48z"/>
<path d="M14419 11355 c-609 -95 -1046 -462 -1238 -1041 -66 -197 -85 -305
-83 -479 2 -313 77 -574 235 -813 206 -313 528 -544 957 -688 l115 -39 1433
-3 c1416 -2 1434 -2 1534 18 520 106 915 386 1126 797 132 257 198 579 173
838 -50 506 -265 886 -650 1145 -150 101 -384 198 -576 239 -95 21 -130 22
-1324 31 -1511 12 -1595 11 -1702 -5z m526 -348 c543 -153 876 -595 879 -1167
1 -153 -14 -242 -70 -410 -162 -488 -566 -781 -1109 -807 -102 -4 -149 -2
-215 11 -272 55 -531 193 -702 374 -177 188 -288 444 -317 735 -9 95 -8 120 9
211 85 441 336 798 674 961 195 94 352 126 591 121 145 -3 183 -7 260 -29z"/>
<path d="M8175 10754 c-193 -29 -413 -96 -595 -181 l-100 -46 0 -1243 0 -1244
480 0 480 0 0 1365 0 1365 -87 -1 c-49 -1 -128 -7 -178 -15z"/>
<path d="M8690 9407 l0 -1367 475 0 475 0 -2 1247 -3 1248 -106 47 c-239 106
-504 174 -721 185 l-118 6 0 -1366z"/>
<path d="M2357 7643 c-4 -3 -7 -318 -7 -700 l0 -693 12638 0 c6951 0 12641 2
12643 4 2 2 3 317 1 700 l-2 696 -12633 0 c-6949 0 -12637 -3 -12640 -7z
m3127 -288 c9 -30 19 -69 23 -86 6 -30 5 -32 -18 -25 -13 4 -78 10 -144 13
-100 5 -123 3 -133 -10 -10 -11 -12 -96 -9 -368 1 -195 6 -364 11 -376 l8 -23
-151 0 c-83 0 -151 3 -151 8 0 4 7 16 15 26 13 17 15 78 15 373 0 338 -1 353
-19 363 -25 13 -172 13 -241 0 -29 -6 -54 -9 -56 -7 -2 1 6 40 18 85 l20 82
399 0 398 0 15 -55z m2195 18 c5 -21 15 -58 21 -82 6 -23 10 -45 8 -46 -2 -2
-21 0 -43 5 -62 15 -438 13 -453 -2 -19 -19 -16 -192 3 -208 16 -13 164 -9
213 6 22 6 22 5 22 -91 l0 -97 -27 6 c-63 14 -180 18 -201 7 -20 -11 -22 -19
-22 -109 0 -63 4 -102 12 -110 14 -14 386 -16 456 -3 23 5 42 7 42 4 0 -2 -10
-42 -21 -88 l-21 -85 -369 0 c-203 0 -369 3 -369 8 1 4 7 18 15 32 22 38 22
827 0 856 -8 10 -15 22 -15 27 0 4 166 7 370 7 l369 0 10 -37z m2141 4 l55
-33 5 -85 c3 -46 11 -94 18 -106 6 -12 12 -24 12 -27 0 -3 -67 -6 -150 -6 -82
0 -150 3 -150 8 1 4 7 18 15 32 18 31 19 72 3 88 -13 13 -192 17 -222 6 -14
-5 -16 -42 -16 -304 0 -262 2 -299 16 -304 30 -11 209 -7 222 6 16 16 15 57
-3 88 -8 14 -14 28 -15 33 0 4 68 7 150 7 83 0 150 -3 150 -7 -1 -5 -7 -19
-15 -33 -9 -16 -14 -55 -15 -105 l0 -80 -63 -37 -63 -38 -242 0 -242 0 -65 41
-65 41 0 388 0 388 58 35 57 35 255 1 255 1 55 -33z m1990 -224 c90 -142 169
-267 177 -278 12 -17 13 17 11 240 -2 143 -7 268 -12 278 -8 16 2 17 143 17
83 0 151 -3 151 -7 0 -5 -7 -17 -15 -27 -22 -29 -22 -818 0 -856 8 -14 14 -28
15 -32 0 -5 -62 -8 -137 -8 l-138 0 -175 277 -175 277 -3 -95 c-5 -153 2 -423
12 -441 8 -17 -2 -18 -143 -18 l-152 0 16 30 c13 25 15 91 15 435 0 344 -2
410 -15 435 l-16 30 139 0 139 0 163 -257z m2630 224 l55 -33 2 -395 3 -394
-63 -37 -63 -38 -242 0 -242 0 -65 41 -65 41 0 388 0 388 58 35 57 35 255 1
255 1 55 -33z m1835 3 c-13 -24 -15 -85 -15 -379 l0 -351 25 -6 c14 -3 128 -5
253 -3 l229 4 -21 -80 -21 -80 -369 -3 -368 -2 8 22 c11 30 12 868 0 891 -8
16 2 17 143 17 l152 0 -16 -30z m2606 -6 l59 -35 0 -390 0 -390 -62 -39 -63
-40 -245 0 -245 0 -62 40 -63 40 0 389 0 389 58 36 57 35 254 1 253 0 59 -36z
m2239 -1 l60 -38 0 -83 c0 -59 5 -90 16 -107 l16 -25 -156 0 c-86 0 -156 3
-156 8 0 4 7 16 15 26 20 27 20 92 -1 100 -30 11 -209 7 -222 -6 -9 -9 -12
-89 -12 -298 0 -209 3 -289 12 -298 13 -13 192 -17 222 -6 13 5 16 23 16 94
l0 89 -36 3 c-35 3 -37 6 -60 68 -13 36 -24 68 -24 73 0 4 88 7 196 7 183 0
196 -1 188 -17 -5 -10 -10 -104 -12 -210 l-3 -191 -65 -41 -65 -41 -241 0
-242 0 -68 40 -68 41 0 387 0 388 63 37 62 37 253 0 252 0 60 -37z m1844 20
c-13 -27 -17 -864 -4 -877 5 -5 10 -16 10 -23 0 -10 -34 -13 -150 -13 l-151 0
16 30 c13 25 15 91 15 435 0 344 -2 410 -15 435 l-16 30 152 0 c141 0 151 -1
143 -17z m2064 -11 c-10 -25 6 -74 137 -422 81 -217 158 -412 171 -432 13 -21
24 -40 24 -43 0 -3 -68 -5 -150 -5 -145 0 -150 1 -141 19 13 24 -34 158 -61
172 -10 5 -75 8 -145 7 l-128 -3 -29 -60 c-18 -36 -30 -75 -29 -97 l0 -38
-149 0 -150 0 24 33 c14 17 94 215 177 438 127 338 151 410 142 427 -6 12 -11
23 -11 26 0 3 74 6 164 6 l164 0 -10 -28z"/>
<path d="M14028 7249 c-17 -9 -18 -35 -18 -304 l0 -295 23 -5 c12 -3 65 -5
117 -3 l95 3 3 294 c2 208 -1 298 -9 307 -14 17 -184 19 -211 3z"/>
<path d="M18458 7249 c-17 -9 -18 -34 -18 -297 0 -211 3 -291 12 -300 13 -13
192 -17 222 -6 14 5 16 41 16 300 0 280 -1 294 -19 304 -25 13 -191 13 -213
-1z"/>
<path d="M24827 7001 c-25 -80 -43 -149 -41 -153 7 -11 171 -10 178 1 3 4 -16
73 -43 152 l-48 144 -46 -144z"/>
</g>
</svg>
