<?xml version="1.0" standalone="no"?>
<!DOCTYPE svg PUBLIC "-//W3C//DTD SVG 20010904//EN"
 "http://www.w3.org/TR/2001/REC-SVG-20010904/DTD/svg10.dtd">
<svg version="1.0" xmlns="http://www.w3.org/2000/svg"
 width="3000.000000pt" height="3000.000000pt" viewBox="0 0 3000.000000 3000.000000"
 preserveAspectRatio="xMidYMid meet">

<g transform="translate(0.000000,3000.000000) scale(0.100000,-0.100000)"
fill="white" stroke="none">
<path d="M5145 7631 l-21 -78 127 5 c70 2 138 2 153 -2 l26 -6 0 -331 c0 -276
-2 -335 -15 -359 l-16 -30 146 0 146 0 -16 30 c-22 44 -23 671 0 690 11 10 51
12 153 8 l139 -5 -22 76 -21 76 -379 3 -380 2 -20 -79z"/>
<path d="M7324 7685 c15 -22 16 -68 14 -422 -2 -219 -7 -406 -12 -415 -8 -17
12 -18 343 -18 l350 0 11 43 c6 23 15 57 20 76 5 19 8 37 5 39 -2 2 -27 -1
-55 -7 -65 -14 -385 -15 -411 -1 -17 9 -19 22 -19 104 0 119 2 121 118 113 48
-3 95 -8 105 -12 15 -6 17 1 17 83 l0 90 -94 -5 c-51 -3 -105 -3 -120 1 -26 6
-26 7 -26 101 0 83 2 96 19 105 26 14 346 13 411 -1 28 -6 53 -9 55 -7 3 2 0
20 -5 39 -5 19 -14 53 -20 77 l-11 42 -356 0 -355 0 16 -25z"/>
<path d="M9477 7673 l-57 -36 2 -370 3 -371 55 -33 55 -33 243 0 243 0 54 34
53 35 5 83 c2 46 7 93 12 106 l7 22 -141 0 c-77 0 -141 -3 -141 -7 1 -5 7 -19
15 -33 21 -36 19 -77 -4 -90 -11 -5 -56 -10 -101 -10 -130 0 -120 -25 -120
300 0 325 -10 300 120 300 45 0 90 -5 101 -10 23 -13 25 -54 4 -90 -8 -14 -14
-28 -15 -32 0 -5 64 -8 141 -8 l141 0 -7 23 c-5 12 -10 59 -12 104 l-4 82 -57
36 -56 35 -241 0 -240 -1 -58 -36z"/>
<path d="M11550 7703 c1 -5 7 -19 15 -33 22 -38 22 -768 0 -810 l-16 -30 142
0 c131 0 141 1 133 18 -10 19 -17 273 -12 416 l3 90 165 -262 165 -261 134 -1
c123 0 133 1 125 18 -12 22 -12 822 0 845 8 16 -2 17 -139 17 l-147 0 16 -25
c14 -22 16 -57 14 -264 l-3 -240 -168 265 -168 264 -130 0 c-71 0 -129 -3
-129 -7z"/>
<path d="M13883 7675 l-53 -35 0 -373 0 -372 54 -33 54 -32 242 0 242 0 54 33
53 32 1 372 0 372 -55 36 -55 35 -243 -1 -242 0 -52 -34z m405 -404 c2 -221
-1 -286 -10 -293 -21 -13 -192 -10 -206 4 -18 18 -17 564 1 572 6 2 57 4 112
3 l100 -2 3 -284z"/>
<path d="M15955 7680 c13 -26 15 -84 13 -422 -2 -216 -7 -401 -12 -410 -8 -17
12 -18 343 -18 l350 0 11 43 c6 23 15 57 20 76 5 19 8 36 6 38 -1 2 -27 -1
-56 -7 -57 -11 -378 -14 -404 -4 -14 5 -16 45 -16 344 0 196 4 350 10 364 l10
26 -146 0 -145 0 16 -30z"/>
<path d="M18107 7673 l-57 -35 2 -371 3 -371 55 -33 55 -33 243 0 243 0 54 35
55 35 0 369 0 369 -57 36 -57 36 -241 -1 -240 -1 -58 -35z m411 -397 c2 -197
-1 -283 -9 -292 -15 -18 -189 -20 -207 -2 -13 13 -18 559 -5 572 4 3 54 5 112
4 l106 -3 3 -279z"/>
<path d="M20238 7673 l-58 -35 0 -368 0 -368 57 -36 57 -36 244 0 243 0 54 35
55 35 0 170 c0 134 3 177 15 200 l16 30 -191 0 -191 0 7 -22 c38 -122 39 -123
77 -126 l37 -3 0 -79 c0 -96 -4 -100 -120 -100 -130 0 -120 -25 -120 300 0
325 -10 300 120 300 45 0 90 -5 101 -10 23 -13 25 -54 4 -90 -8 -14 -14 -28
-15 -32 0 -5 65 -8 145 -8 l146 0 -16 30 c-9 18 -15 56 -15 104 l0 74 -57 36
-57 36 -241 -1 -240 -1 -57 -35z"/>
<path d="M22326 7693 c12 -23 12 -823 0 -845 -8 -17 2 -18 133 -18 78 0 141 4
141 8 0 4 -5 13 -10 18 -13 13 -9 810 4 837 8 16 -2 17 -134 17 -132 0 -142
-1 -134 -17z"/>
<path d="M24260 7704 c0 -3 4 -14 10 -24 7 -14 -23 -106 -136 -406 -80 -214
-151 -396 -158 -404 -34 -40 -33 -40 114 -40 130 0 142 1 136 17 -7 17 27 125
47 151 11 13 253 18 274 4 17 -11 63 -140 57 -157 -5 -13 14 -15 135 -15 l142
0 -24 33 c-13 17 -87 204 -166 414 -115 310 -140 386 -131 402 5 11 10 22 10
25 0 3 -70 6 -155 6 -85 0 -155 -3 -155 -6z m200 -387 c23 -71 39 -135 36
-143 -8 -20 -154 -20 -162 0 -5 14 74 282 81 275 2 -2 22 -62 45 -132z"/>
</g>
</svg>
